<svg width="17" height="17" viewBox="0 0 17 17" fill="none" xmlns="http://www.w3.org/2000/svg">
<path d="M12.5 1H5C2.92893 1 1.25 2.67893 1.25 4.75V12.25C1.25 14.3211 2.92893 16 5 16H12.5C14.5711 16 16.25 14.3211 16.25 12.25V4.75C16.25 2.67893 14.5711 1 12.5 1Z" stroke="white" stroke-linecap="round" stroke-linejoin="round"/>
<path d="M11.7508 8.02675C11.8433 8.65093 11.7367 9.28841 11.4461 9.84851C11.1555 10.4086 10.6956 10.8628 10.132 11.1465C9.56834 11.4302 8.92959 11.5289 8.3066 11.4287C7.6836 11.3285 7.10808 11.0343 6.66189 10.5881C6.21569 10.1419 5.92156 9.56641 5.82131 8.94341C5.72106 8.32041 5.81981 7.68167 6.1035 7.11803C6.3872 6.55439 6.8414 6.09456 7.4015 5.80393C7.96159 5.51331 8.59907 5.40669 9.22326 5.49925C9.85995 5.59366 10.4494 5.89035 10.9045 6.34548C11.3597 6.80061 11.6563 7.39006 11.7508 8.02675Z" stroke="white" stroke-linecap="round" stroke-linejoin="round"/>
<path d="M12.875 4.375H12.8825" stroke="white" stroke-linecap="round" stroke-linejoin="round"/>
</svg>
