<svg width="295" height="59" viewBox="0 0 295 59" fill="none" xmlns="http://www.w3.org/2000/svg">
<path d="M41.8181 48.8306L2.33861 21.5977C-1.66215 18.8381 -0.302154 13.0922 4.6867 11.741L46.6463 0.352723C47.5351 0.0320001 48.4876 -0.0721106 49.4248 0.0490339C50.3619 0.170178 51.2566 0.513083 52.0347 1.04929C52.8127 1.58549 53.4517 2.29953 53.8985 3.13215C54.3453 3.96476 54.5871 4.89194 54.6038 5.83672L52.1171 44.4557C51.8222 49.0397 45.8188 51.5902 41.8181 48.8306Z" fill="#E9327C"/>
<path d="M29.297 55.553L6.03848 10.068C5.50682 9.02743 5.27286 7.86025 5.36241 6.69516C5.45196 5.53008 5.86153 4.41235 6.54596 3.46526C7.2304 2.51816 8.16309 1.77848 9.2412 1.3278C10.3193 0.877108 11.501 0.732923 12.6558 0.911137L55.7597 7.56367C56.7521 7.71684 57.694 8.10339 58.5078 8.69151C59.3217 9.27964 59.9844 10.0526 60.4413 10.9467C60.8983 11.8408 61.1365 12.8307 61.1363 13.8348C61.1362 14.839 60.8977 15.8287 60.4405 16.7227L40.5841 55.5552C40.0509 56.5928 39.242 57.4633 38.2462 58.071C37.2505 58.6787 36.1064 59.0001 34.9399 58.9999C33.7733 58.9996 32.6294 58.6778 31.6339 58.0697C30.6384 57.4616 29.8298 56.5908 29.297 55.553Z" fill="#1DACE3"/>
<path d="M54.4972 7.36812L33.0102 4.05176L6.62891 11.2148L17.159 31.815L41.8171 48.8304C42.3611 49.2015 42.9595 49.4859 43.5908 49.6732L52.9568 31.3573L54.4972 7.36812Z" fill="#3A68B8"/>
<path d="M163.336 12.6847C163.336 11.886 163.573 11.1052 164.016 10.4412C164.46 9.7771 165.091 9.25951 165.829 8.95387C166.567 8.64823 167.379 8.56827 168.162 8.72408C168.945 8.87989 169.665 9.26449 170.23 9.82924C170.794 10.394 171.179 11.1135 171.335 11.8969C171.491 12.6802 171.411 13.4921 171.105 14.23C170.799 14.9679 170.282 15.5986 169.618 16.0423C168.954 16.486 168.173 16.7228 167.374 16.7228C166.306 16.7119 165.286 16.283 164.531 15.528C163.776 14.7731 163.347 13.7523 163.336 12.6847ZM164.009 18.6968H170.741V41.1301H164.009V18.6968Z" fill="white"/>
<path d="M199.811 29.9139C199.889 31.3967 199.673 32.8803 199.176 34.2795C198.679 35.6786 197.91 36.9656 196.913 38.0666C195.917 39.1675 194.713 40.0605 193.37 40.6944C192.027 41.3282 190.572 41.6904 189.089 41.7599C187.841 41.8279 186.594 41.6174 185.438 41.144C184.282 40.6705 183.245 39.9458 182.404 39.0223V50.1048H175.674V18.6972H182.404V20.8055C183.245 19.8824 184.282 19.1581 185.438 18.685C186.595 18.2119 187.842 18.0019 189.089 18.0701C190.572 18.1394 192.027 18.5012 193.37 19.1348C194.713 19.7685 195.917 20.6613 196.913 21.7621C197.91 22.8628 198.679 24.1497 199.176 25.5487C199.673 26.9477 199.889 28.4312 199.811 29.9139ZM193.081 29.9139C193.055 28.8636 192.719 27.8444 192.116 26.9839C191.513 26.1233 190.67 25.4597 189.692 25.076C188.714 24.6924 187.645 24.6057 186.617 24.8269C185.59 25.048 184.651 25.5672 183.918 26.3195C183.184 27.0717 182.689 28.0236 182.494 29.0559C182.299 30.0883 182.412 31.1553 182.82 32.1234C183.229 33.0915 183.913 33.9176 184.789 34.4985C185.664 35.0794 186.692 35.3892 187.742 35.3891C188.464 35.4216 189.184 35.3011 189.856 35.0356C190.527 34.7701 191.135 34.3655 191.639 33.8484C192.143 33.3314 192.532 32.7135 192.781 32.0354C193.029 31.3573 193.132 30.6343 193.081 29.9139Z" fill="white"/>
<path d="M220.584 34.3971C220.584 39.5576 216.097 41.756 211.251 41.756C209.293 41.9331 207.328 41.5188 205.608 40.5667C203.888 39.6145 202.494 38.1683 201.605 36.4151L207.437 33.0965C207.674 33.9069 208.182 34.6113 208.877 35.092C209.571 35.5727 210.409 35.8005 211.251 35.7372C212.866 35.7372 213.672 35.2421 213.672 34.3464C213.672 31.8773 202.635 33.1801 202.635 25.4163C202.635 20.5264 206.762 18.0595 211.438 18.0595C213.192 18.0045 214.929 18.4207 216.467 19.2648C218.006 20.109 219.29 21.3501 220.185 22.8591L214.444 25.9554C214.193 25.3665 213.774 24.8647 213.239 24.5124C212.705 24.1602 212.078 23.9732 211.438 23.9748C210.272 23.9748 209.554 24.415 209.554 25.2314C209.548 27.8061 220.584 26.1007 220.584 34.3971Z" fill="white"/>
<path d="M245.18 18.6973V41.1306H238.45V39.018C237.673 39.9486 236.686 40.6819 235.571 41.1577C234.455 41.6335 233.243 41.8384 232.033 41.7556C227.502 41.7556 223.645 38.525 223.645 32.4667V18.6973H230.374V31.4852C230.317 32.0199 230.378 32.5605 230.552 33.0693C230.725 33.5782 231.008 34.0431 231.379 34.4317C231.751 34.8203 232.203 35.1232 232.703 35.3193C233.204 35.5155 233.741 35.6001 234.278 35.5674C236.745 35.5674 238.459 34.1325 238.459 30.946V18.6973H245.18Z" fill="white"/>
<path d="M283.752 27.3538V41.1298H277.022V27.9391C277.022 25.6967 275.944 24.2597 273.791 24.2597C271.547 24.2597 270.292 25.8309 270.292 28.4783V41.1298H263.561V27.9391C263.561 25.6967 262.485 24.2597 260.33 24.2597C258.088 24.2597 256.831 25.8309 256.831 28.4783V41.1298H250.102V18.6965H256.842V20.7518C257.54 19.8366 258.455 19.1108 259.506 18.6406C260.556 18.1705 261.707 17.971 262.854 18.0605C264.006 18.0041 265.153 18.2472 266.183 18.7659C267.213 19.2846 268.092 20.0613 268.732 21.0203C269.478 20.0169 270.466 19.2191 271.604 18.7014C272.742 18.1838 273.993 17.9633 275.239 18.0605C280.389 18.0693 283.752 21.7465 283.752 27.3538Z" fill="white"/>
<path d="M289.454 18.5583C292.213 18.5583 294.45 16.3217 294.45 13.5628C294.45 10.8039 292.213 8.56738 289.454 8.56738C286.696 8.56738 284.459 10.8039 284.459 13.5628C284.459 16.3217 286.696 18.5583 289.454 18.5583Z" fill="white"/>
<path d="M71.4551 8.37793H78.1868V41.13H71.4551V8.37793ZM81.9983 29.9134C81.9909 27.5615 82.6816 25.2603 83.9828 23.3011C85.2841 21.342 87.1375 19.813 89.3082 18.9079C91.479 18.0027 93.8695 17.762 96.1771 18.2163C98.4847 18.6706 100.606 19.7994 102.271 21.4599C103.937 23.1203 105.073 25.2377 105.534 27.5438C105.996 29.85 105.763 32.2413 104.864 34.4149C103.966 36.5885 102.443 38.4466 100.488 39.7541C98.5327 41.0615 96.2337 41.7594 93.8818 41.7594C92.3198 41.7761 90.77 41.4814 89.3232 40.8925C87.8763 40.3035 86.5613 39.4322 85.455 38.3293C84.3486 37.2265 83.4731 35.9142 82.8797 34.4692C82.2862 33.0243 81.9866 31.4755 81.9983 29.9134ZM99.0489 29.9134C99.0225 28.8989 98.6975 27.9147 98.1147 27.0839C97.5318 26.2531 96.717 25.6126 95.772 25.2425C94.827 24.8724 93.7939 24.7892 92.8019 25.0032C91.8098 25.2172 90.9029 25.719 90.1946 26.4458C89.4862 27.1725 89.0079 28.092 88.8194 29.0892C88.6309 30.0864 88.7407 31.1171 89.1349 32.0522C89.5291 32.9874 90.1903 33.7855 91.0358 34.3469C91.8813 34.9082 92.8735 35.2078 93.8884 35.2081C94.5833 35.2279 95.2748 35.1035 95.9193 34.8428C96.5638 34.5821 97.1473 34.1906 97.6329 33.6932C98.1186 33.1957 98.4959 32.603 98.7412 31.9525C98.9864 31.3019 99.0942 30.6076 99.0577 29.9134H99.0489ZM132.606 18.6901V40.0033C132.606 47.5405 126.729 50.7248 120.763 50.7248C118.663 50.8833 116.559 50.4606 114.684 49.503C112.808 48.5453 111.232 47.0898 110.129 45.2959L115.871 41.9751C116.334 42.9114 117.072 43.6838 117.987 44.1892C118.901 44.6945 119.948 44.9086 120.987 44.8029C121.65 44.8935 122.326 44.834 122.963 44.6287C123.6 44.4235 124.183 44.0778 124.669 43.6171C125.155 43.1565 125.531 42.5926 125.77 41.9671C126.009 41.3416 126.104 40.6705 126.049 40.0033V37.9391C125.26 38.9031 124.257 39.669 123.119 40.1754C121.982 40.6817 120.741 40.9145 119.497 40.855C116.536 40.7629 113.727 39.522 111.665 37.3948C109.603 35.2677 108.45 32.4215 108.45 29.459C108.45 26.4964 109.603 23.6502 111.665 21.5231C113.727 19.3959 116.536 18.155 119.497 18.0629C120.741 18.0034 121.982 18.2362 123.119 18.7425C124.257 19.2489 125.26 20.0148 126.049 20.9788V18.6901H132.606ZM126.057 29.4579C126.102 28.3743 125.821 27.3023 125.251 26.3796C124.681 25.457 123.849 24.7258 122.86 24.2802C121.871 23.8345 120.772 23.6948 119.703 23.8789C118.635 24.0631 117.646 24.5627 116.863 25.3134C116.081 26.0642 115.541 27.0319 115.312 28.0921C115.084 29.1522 115.178 30.2564 115.583 31.2626C115.987 32.2688 116.683 33.131 117.582 33.7385C118.48 34.3459 119.54 34.6707 120.624 34.6712C121.331 34.7209 122.041 34.622 122.707 34.381C123.374 34.14 123.983 33.7621 124.494 33.2717C125.006 32.7813 125.41 32.1892 125.679 31.5335C125.948 30.8778 126.077 30.173 126.057 29.4645V29.4579ZM136.418 29.898C136.411 27.5461 137.101 25.2449 138.402 23.2857C139.704 21.3266 141.557 19.7976 143.728 18.8925C145.899 17.9873 148.289 17.7466 150.597 18.2009C152.904 18.6552 155.025 19.784 156.691 21.4445C158.357 23.1049 159.492 25.2222 159.954 27.5284C160.415 29.8346 160.182 32.2259 159.284 34.3995C158.385 36.5731 156.862 38.4312 154.907 39.7387C152.952 41.0461 150.653 41.744 148.301 41.744C146.741 41.7607 145.192 41.4665 143.746 40.8785C142.301 40.2905 140.986 39.4206 139.88 38.3193C138.774 37.2181 137.898 35.9077 137.304 34.4645C136.709 33.0213 136.408 31.4742 136.418 29.9134V29.898ZM153.468 29.898C153.443 28.8828 153.118 27.8979 152.535 27.0664C151.952 26.2349 151.137 25.5938 150.191 25.2232C149.246 24.8527 148.212 24.7693 147.219 24.9833C146.227 25.1974 145.319 25.6994 144.61 26.4266C143.902 27.1538 143.423 28.0739 143.234 29.0718C143.046 30.0696 143.156 31.1009 143.551 32.0365C143.945 32.9722 144.607 33.7706 145.453 34.332C146.3 34.8934 147.293 35.1928 148.308 35.1927C149.001 35.2111 149.69 35.0863 150.332 34.8259C150.975 34.5655 151.556 34.1753 152.041 33.6797C152.525 33.184 152.902 32.5937 153.148 31.9456C153.394 31.2975 153.503 30.6056 153.468 29.9134V29.898Z" fill="white"/>
</svg>
