<svg width="15" height="18" viewBox="0 0 15 18" fill="none" xmlns="http://www.w3.org/2000/svg">
<path d="M14 7.5C14 12.5556 7.5 16.8889 7.5 16.8889C7.5 16.8889 1 12.5556 1 7.5C1 5.77609 1.68482 4.12279 2.90381 2.90381C4.12279 1.68482 5.77609 1 7.5 1C9.22391 1 10.8772 1.68482 12.0962 2.90381C13.3152 4.12279 14 5.77609 14 7.5Z" stroke="white" stroke-linecap="round" stroke-linejoin="round"/>
<path d="M7.49967 9.66732C8.69629 9.66732 9.66634 8.69727 9.66634 7.50065C9.66634 6.30403 8.69629 5.33398 7.49967 5.33398C6.30306 5.33398 5.33301 6.30403 5.33301 7.50065C5.33301 8.69727 6.30306 9.66732 7.49967 9.66732Z" stroke="white" stroke-linecap="round" stroke-linejoin="round"/>
</svg>
