<svg width="218" height="59" viewBox="0 0 218 59" fill="none" xmlns="http://www.w3.org/2000/svg">
<path d="M17.9563 56.3019L11.9971 45.9802L20.7425 30.874L26.3 40.5005L59.1065 40.4828L49.7975 56.4444L17.9563 56.3019Z" fill="#FFAD64"/>
<path d="M64.9651 30.2345L59.0059 40.5561L41.5509 40.5355L47.1089 30.9093L30.6904 2.50684L49.168 2.5879L64.9651 30.2345Z" fill="#ADD4D3"/>
<path d="M18.8752 2.45117H30.7936L39.5033 17.5782L28.3875 17.5777L11.9997 45.9979L2.83105 29.9553L18.8752 2.45117Z" fill="#FB8351"/>
<path fill-rule="evenodd" clip-rule="evenodd" d="M32.2463 0.0616566L32.2108 0H17.4668L0 29.9431L11.99 50.9223L12.0047 50.8969L16.5374 58.7478L51.2023 58.9029L63.3759 38.0295H63.2949L67.792 30.2404L50.5939 0.142154L32.2463 0.0616566ZM43.6518 20.0302H43.7437L35.0767 4.97739L47.7413 5.03291L62.1375 30.2277L57.6314 38.0327L45.8226 38.0389L49.9399 30.9081L43.6518 20.0302ZM29.2438 4.90318L35.1536 15.1267L26.9712 15.1264L12.9627 39.4199L12.0072 41.0706L5.6619 29.9681L20.2831 4.90318H29.2438ZM23.5619 30.8543L29.8037 20.0297L37.9881 20.03L44.2772 30.9095L40.159 38.0421L27.7154 38.0488L23.5619 30.8543ZM14.8338 45.9906L17.2085 41.8725L20.7398 35.7729L24.8853 42.9535L37.327 42.9468L37.3069 42.9816L54.7996 43.0023L48.3932 53.987L19.3756 53.8572L14.8338 45.9906Z" fill="#333237"/>
<path d="M82.0702 50.3735V38.8959H77.8281V37.6074H87.9379V38.8959H83.6957V50.3735H82.0702Z" fill="white"/>
<path d="M92.4566 50.5719C90.7782 50.5719 89.5228 50.1689 88.6903 49.3628C87.8576 48.5567 87.4414 47.3144 87.4414 45.6359C87.4414 44.1295 87.7982 42.9467 88.5118 42.0877C89.2386 41.2155 90.3818 40.7793 91.9412 40.7793C92.8662 40.7793 93.6261 40.9511 94.2208 41.2948C94.8287 41.6251 95.2782 42.0877 95.5689 42.6824C95.8728 43.2639 96.0247 43.9247 96.0247 44.6647V46.4289H89.0669C89.1197 47.1426 89.2717 47.7042 89.5228 48.1139C89.7871 48.5236 90.1769 48.8209 90.6924 49.006C91.2209 49.1777 91.9148 49.2636 92.7738 49.2636C93.7384 49.2636 94.6239 49.0985 95.43 48.768V50.0367C95.0204 50.2086 94.5578 50.3407 94.0424 50.4332C93.5402 50.5257 93.0117 50.5719 92.4566 50.5719ZM89.0669 45.2594H94.5777V44.4863C94.5777 43.7197 94.3728 43.1317 93.9631 42.7221C93.5667 42.2992 92.9059 42.0877 91.9808 42.0877C90.8575 42.0877 90.0911 42.352 89.6813 42.8806C89.2717 43.4092 89.0669 44.2021 89.0669 45.2594Z" fill="white"/>
<path d="M102.847 50.5722C101.208 50.5722 99.992 50.1493 99.1992 49.3035C98.4062 48.4446 98.0097 47.2353 98.0097 45.6759C98.0097 44.024 98.459 42.795 99.3577 41.9889C100.256 41.1827 101.466 40.7795 102.985 40.7795C103.607 40.7795 104.122 40.8258 104.532 40.9184C104.941 40.9976 105.338 41.1298 105.721 41.3148V42.6033C105.007 42.2597 104.195 42.0879 103.283 42.0879C102.12 42.0879 101.221 42.3655 100.587 42.9206C99.9523 43.4623 99.6352 44.3808 99.6352 45.6759C99.6352 46.9181 99.9128 47.83 100.468 48.4115C101.023 48.9798 101.941 49.2638 103.223 49.2638C104.135 49.2638 104.974 49.0921 105.741 48.7485V50.0568C105.331 50.2287 104.888 50.3541 104.413 50.4335C103.95 50.526 103.428 50.5722 102.847 50.5722Z" fill="white"/>
<path d="M107.562 50.3735V37.0127H109.188V41.9884C109.624 41.6316 110.133 41.3408 110.714 41.1162C111.309 40.8914 111.996 40.7791 112.776 40.7791C113.912 40.7791 114.765 41.0567 115.333 41.6117C115.902 42.1668 116.186 43.039 116.186 44.2283V50.3735H114.56V44.2878C114.56 43.4684 114.375 42.9002 114.005 42.583C113.648 42.2527 113.054 42.0874 112.221 42.0874C111.692 42.0874 111.144 42.2063 110.576 42.4442C110.021 42.6689 109.558 42.9663 109.188 43.3363V50.3735H107.562Z" fill="white"/>
<path d="M122.668 50.5717C121.346 50.5717 120.289 50.281 119.496 49.6994C118.703 49.1179 118.307 48.3382 118.307 47.3603C118.307 46.4617 118.584 45.6885 119.139 45.041C119.694 44.3934 120.454 43.8185 121.419 43.3164C120.904 42.801 120.467 42.3186 120.111 41.8693C119.754 41.42 119.575 40.8781 119.575 40.2438C119.575 39.4509 119.846 38.7835 120.388 38.2417C120.943 37.6866 121.723 37.4092 122.727 37.4092C123.705 37.4092 124.465 37.6668 125.007 38.1822C125.548 38.6976 125.82 39.3848 125.82 40.2438C125.82 40.9575 125.628 41.5588 125.244 42.0477C124.861 42.5367 124.313 43.0323 123.599 43.5345L126.89 46.8846C127.114 46.3956 127.227 45.7744 127.227 45.0211V44.7437H128.516V45.0211C128.516 45.5367 128.456 46.0388 128.337 46.5277C128.219 47.0167 128.046 47.4396 127.822 47.7964L129.606 49.6003L128.614 50.4924L127.028 48.9264C126.566 49.4946 125.965 49.9109 125.225 50.1752C124.485 50.4396 123.632 50.5717 122.668 50.5717ZM122.588 42.7415C123.21 42.3583 123.679 41.9949 123.996 41.6513C124.313 41.2944 124.472 40.8451 124.472 40.3034C124.472 39.8011 124.333 39.4046 124.055 39.1139C123.791 38.81 123.348 38.658 122.727 38.658C122.093 38.658 121.63 38.8166 121.34 39.1337C121.062 39.4509 120.923 39.8408 120.923 40.3034C120.923 40.7263 121.069 41.116 121.359 41.4728C121.663 41.8297 122.073 42.2526 122.588 42.7415ZM122.668 49.4021C123.434 49.4021 124.088 49.2898 124.63 49.0651C125.185 48.8272 125.654 48.4771 126.038 48.0145L122.41 44.3075C121.551 44.704 120.91 45.1335 120.487 45.596C120.078 46.0453 119.873 46.6202 119.873 47.3207C119.873 48.0078 120.137 48.5299 120.666 48.8867C121.194 49.2302 121.862 49.4021 122.668 49.4021Z" fill="#FB8351"/>
<path d="M78.4688 28.3411V10.665H83.6288V24.3886H91.5886V28.3411H78.4688Z" fill="#FB8351"/>
<path d="M99.8899 28.6157C97.2916 28.6157 95.3703 28.0392 94.126 26.8864C92.9001 25.7336 92.2871 24.0502 92.2871 21.8361C92.2871 19.6404 92.9092 17.9661 94.1535 16.8133C95.3978 15.6422 97.3099 15.0566 99.8899 15.0566C102.488 15.0566 104.41 15.6422 105.654 16.8133C106.917 17.9661 107.548 19.6404 107.548 21.8361C107.548 24.0502 106.926 25.7336 105.681 26.8864C104.437 28.0392 102.507 28.6157 99.8899 28.6157ZM99.8899 24.8553C100.732 24.8553 101.336 24.6175 101.702 24.1417C102.086 23.666 102.278 22.8974 102.278 21.8361C102.278 20.7932 102.086 20.0337 101.702 19.558C101.336 19.0639 100.732 18.8169 99.8899 18.8169C99.0665 18.8169 98.4718 19.0639 98.1059 19.558C97.7399 20.0337 97.5569 20.7932 97.5569 21.8361C97.5569 22.8974 97.7399 23.666 98.1059 24.1417C98.4718 24.6175 99.0665 24.8553 99.8899 24.8553Z" fill="#FB8351"/>
<path d="M115.192 33.1719C114.551 33.1719 113.856 33.1445 113.106 33.0895C112.355 33.053 111.642 32.9798 110.965 32.87C110.306 32.7603 109.757 32.6321 109.318 32.4857V29.192C109.812 29.3567 110.379 29.494 111.02 29.6037C111.678 29.7135 112.346 29.7959 113.023 29.8508C113.7 29.9056 114.322 29.9332 114.89 29.9332C115.859 29.9332 116.619 29.8782 117.168 29.7685C117.735 29.677 118.019 29.5031 118.019 29.2469C118.019 29.0274 117.927 28.881 117.744 28.8078C117.561 28.7528 117.214 28.7254 116.701 28.7254H113.27C111.935 28.7254 110.901 28.515 110.169 28.0941C109.455 27.655 109.098 27.0054 109.098 26.1454C109.098 24.9376 109.766 24.096 111.102 23.6203C110.352 23.2359 109.803 22.7511 109.455 22.1655C109.107 21.58 108.934 20.8389 108.934 19.9423C108.934 18.2588 109.501 17.0237 110.635 16.2368C111.788 15.4501 113.444 15.0566 115.603 15.0566C116.061 15.0566 116.573 15.0932 117.14 15.1664C117.708 15.2213 118.119 15.2763 118.375 15.3311H123.481L123.371 18.4601H121.642C121.971 18.881 122.136 19.3933 122.136 19.9972C122.136 21.333 121.742 22.3943 120.955 23.1811C120.187 23.9496 118.97 24.3339 117.305 24.3339C117.067 24.3339 116.811 24.3248 116.536 24.3064C116.262 24.2698 116.006 24.2424 115.768 24.224C115.365 24.2607 115.018 24.3339 114.725 24.4437C114.432 24.5534 114.286 24.7364 114.286 24.9926C114.286 25.1756 114.368 25.3037 114.533 25.3768C114.698 25.4318 114.926 25.4592 115.219 25.4592H118.211C119.546 25.4592 120.599 25.7703 121.367 26.3924C122.136 27.0146 122.52 27.9294 122.52 29.1372C122.52 30.418 121.925 31.4061 120.736 32.1014C119.546 32.8151 117.698 33.1719 115.192 33.1719ZM115.631 21.5068C116.436 21.5068 116.994 21.3695 117.305 21.0951C117.616 20.8206 117.772 20.3632 117.772 19.7227C117.772 19.0822 117.616 18.6156 117.305 18.3229C116.994 18.0302 116.436 17.8837 115.631 17.8837C114.881 17.8837 114.332 18.0302 113.984 18.3229C113.655 18.5974 113.49 19.0639 113.49 19.7227C113.49 20.3449 113.645 20.8023 113.956 21.0951C114.286 21.3695 114.844 21.5068 115.631 21.5068Z" fill="#FB8351"/>
<path d="M131.895 28.6157C129.296 28.6157 127.375 28.0392 126.13 26.8864C124.904 25.7336 124.291 24.0502 124.291 21.8361C124.291 19.6404 124.913 17.9661 126.157 16.8133C127.402 15.6422 129.314 15.0566 131.895 15.0566C134.492 15.0566 136.413 15.6422 137.658 16.8133C138.921 17.9661 139.552 19.6404 139.552 21.8361C139.552 24.0502 138.93 25.7336 137.685 26.8864C136.44 28.0392 134.511 28.6157 131.895 28.6157ZM131.895 24.8553C132.735 24.8553 133.339 24.6175 133.706 24.1417C134.09 23.666 134.282 22.8974 134.282 21.8361C134.282 20.7932 134.09 20.0337 133.706 19.558C133.339 19.0639 132.735 18.8169 131.895 18.8169C131.071 18.8169 130.476 19.0639 130.109 19.558C129.744 20.0337 129.561 20.7932 129.561 21.8361C129.561 22.8974 129.744 23.666 130.109 24.1417C130.476 24.6175 131.071 24.8553 131.895 24.8553Z" fill="#FB8351"/>
<path d="M141.819 13.601V9.86816H147.391V13.601H141.819ZM142.23 28.3402V19.0905H140.338L140.776 15.3303H147.391V28.3402H142.23Z" fill="white"/>
<path d="M149.867 34.2697V15.3311H154.342L154.588 16.374C155.118 15.9532 155.695 15.633 156.317 15.4135C156.958 15.1755 157.698 15.0566 158.541 15.0566C160.48 15.0566 161.972 15.5506 163.015 16.5387C164.075 17.5085 164.606 19.1646 164.606 21.5067C164.606 23.8307 164.048 25.5963 162.932 26.8041C161.816 28.0118 160.279 28.6155 158.321 28.6155C157.022 28.6155 155.924 28.3686 155.027 27.8745V34.2697H149.867ZM157.003 24.8553C157.754 24.8553 158.331 24.59 158.733 24.0593C159.136 23.5287 159.337 22.7053 159.337 21.589C159.337 20.5095 159.144 19.7776 158.76 19.3933C158.394 19.009 157.827 18.8169 157.058 18.8169C156.29 18.8169 155.613 19.0731 155.027 19.5854V24.1966C155.321 24.4161 155.613 24.5808 155.906 24.6906C156.198 24.8003 156.564 24.8553 157.003 24.8553Z" fill="white"/>
<path d="M171.484 28.6155C170.368 28.6155 169.316 28.5333 168.328 28.3686C167.357 28.2222 166.59 28.0301 166.022 27.7921V24.0867C166.662 24.3796 167.422 24.6082 168.299 24.7729C169.197 24.9376 169.956 25.02 170.577 25.02C171.237 25.02 171.731 25.0017 172.06 24.965C172.409 24.9285 172.581 24.7729 172.581 24.4985C172.581 24.1875 172.28 23.9496 171.676 23.7848C171.073 23.6201 170.313 23.3822 169.398 23.0712C168.208 22.6503 167.32 22.1564 166.735 21.589C166.15 21.0218 165.857 20.1985 165.857 19.1187C165.857 17.8197 166.37 16.8224 167.395 16.1271C168.419 15.4135 170.029 15.0566 172.224 15.0566C173.066 15.0566 173.936 15.1206 174.832 15.2487C175.728 15.3768 176.433 15.5232 176.946 15.6879V19.311C176.396 19.0731 175.793 18.8992 175.135 18.7895C174.494 18.6796 173.909 18.6248 173.378 18.6248C172.792 18.6248 172.27 18.6522 171.813 18.7071C171.355 18.7619 171.127 18.9175 171.127 19.1737C171.127 19.4664 171.384 19.6769 171.896 19.805C172.426 19.9331 173.131 20.1344 174.008 20.4088C174.998 20.7016 175.765 21.0218 176.315 21.3695C176.882 21.7172 177.275 22.1379 177.495 22.6321C177.732 23.1262 177.852 23.739 177.852 24.4711C177.852 25.7886 177.311 26.8132 176.232 27.5451C175.17 28.2587 173.587 28.6155 171.484 28.6155Z" fill="white"/>
<path d="M184.501 28.6155C182.983 28.6155 181.794 28.1856 180.933 27.3255C180.074 26.4655 179.645 25.2029 179.645 23.5377V15.3311H184.804V23.1261C184.804 24.2605 185.381 24.8278 186.532 24.8278C186.953 24.8278 187.366 24.7364 187.768 24.5534C188.171 24.3704 188.491 24.1416 188.729 23.8672V15.3311H193.888V28.341H189.059L188.922 27.3529C188.409 27.7189 187.777 28.0209 187.028 28.2587C186.296 28.4966 185.453 28.6155 184.501 28.6155Z" fill="white"/>
<path d="M196.346 28.3411V15.3311H201.121L201.258 16.374C201.826 15.9898 202.457 15.6788 203.152 15.4409C203.866 15.1847 204.644 15.0566 205.486 15.0566C206.326 15.0566 206.986 15.1755 207.461 15.4135C207.938 15.6512 208.322 15.9989 208.614 16.4563C209.199 16.0356 209.859 15.697 210.591 15.4409C211.34 15.1847 212.219 15.0566 213.226 15.0566C214.744 15.0566 215.86 15.4591 216.574 16.2642C217.288 17.0511 217.644 18.2588 217.644 19.8873V28.3411H212.566V20.4912C212.566 19.9056 212.448 19.494 212.21 19.256C211.973 18.9998 211.579 18.8718 211.029 18.8718C210.316 18.8718 209.73 19.128 209.274 19.6403C209.309 19.8782 209.328 20.107 209.328 20.3265C209.328 20.5277 209.328 20.7565 209.328 21.0127V28.3411H204.552V20.4088C204.552 19.8782 204.461 19.494 204.278 19.256C204.094 18.9998 203.747 18.8718 203.235 18.8718C202.887 18.8718 202.548 18.9633 202.219 19.1463C201.889 19.3293 201.596 19.5488 201.341 19.805V28.3411H196.346Z" fill="white"/>
<path d="M138.011 50.7358C136.637 50.7358 135.493 50.478 134.581 49.9626C133.684 49.434 133.01 48.7005 132.56 47.7622C132.111 46.8108 131.887 45.7007 131.887 44.432C131.887 43.0445 132.098 41.8352 132.52 40.8044C132.943 39.7736 133.604 38.9807 134.503 38.4256C135.402 37.8574 136.564 37.5732 137.991 37.5732C138.732 37.5732 139.398 37.626 139.993 37.7318C140.602 37.8376 141.17 37.9829 141.699 38.168V39.5952C141.17 39.397 140.609 39.245 140.013 39.1392C139.418 39.0203 138.792 38.9608 138.131 38.9608C136.981 38.9608 136.069 39.1789 135.395 39.6151C134.721 40.0511 134.239 40.6788 133.948 41.4982C133.656 42.3176 133.511 43.2955 133.511 44.432C133.511 46.0046 133.882 47.2205 134.621 48.0795C135.375 48.9253 136.558 49.3482 138.169 49.3482C138.765 49.3482 139.366 49.3018 139.974 49.2093C140.594 49.1168 141.17 48.9715 141.699 48.7733V50.2204C141.182 50.379 140.621 50.5044 140.013 50.597C139.418 50.6895 138.752 50.7358 138.011 50.7358Z" fill="white"/>
<path d="M148.373 50.735C146.734 50.735 145.538 50.3187 144.785 49.4862C144.045 48.6404 143.676 47.4245 143.676 45.8387C143.676 44.266 144.053 43.0569 144.805 42.2111C145.558 41.3653 146.749 40.9424 148.373 40.9424C149.999 40.9424 151.189 41.3653 151.941 42.2111C152.695 43.0569 153.071 44.266 153.071 45.8387C153.071 47.4245 152.702 48.6404 151.961 49.4862C151.222 50.3187 150.026 50.735 148.373 50.735ZM148.373 49.3475C149.496 49.3475 150.29 49.0699 150.752 48.5148C151.215 47.9466 151.446 47.0546 151.446 45.8387C151.446 44.6228 151.209 43.7375 150.732 43.1825C150.27 42.6141 149.483 42.33 148.373 42.33C147.264 42.33 146.47 42.6141 145.995 43.1825C145.533 43.7375 145.301 44.6228 145.301 45.8387C145.301 47.0546 145.533 47.9466 145.995 48.5148C146.457 49.0699 147.25 49.3475 148.373 49.3475Z" fill="white"/>
<path d="M155.059 50.5377V49.1699H156.526V50.5377H155.059Z" fill="white"/>
</svg>
