<svg width="213" height="59" viewBox="0 0 213 59" fill="none" xmlns="http://www.w3.org/2000/svg">
<path fill-rule="evenodd" clip-rule="evenodd" d="M105.235 6.43504C107.288 4.38233 110.616 4.38233 112.669 6.43504C114.722 8.48789 114.722 11.8161 112.669 13.869L100.154 26.3845C96.5602 21.5687 96.9506 14.7197 101.325 10.3456L105.235 6.43504Z" fill="#4F9E91"/>
<path fill-rule="evenodd" clip-rule="evenodd" d="M123.127 34.6717C125.18 36.7244 125.18 40.0528 123.127 42.1055C121.075 44.1583 117.746 44.1583 115.693 42.1055L103.178 29.5901C107.993 25.9968 114.843 26.387 119.217 30.7611L123.127 34.6717Z" fill="#EBE1C5"/>
<path fill-rule="evenodd" clip-rule="evenodd" d="M94.8914 52.5645C92.8387 54.6174 89.5103 54.6174 87.4576 52.5645C85.4048 50.5117 85.4048 47.1834 87.4576 45.1306L99.973 32.6152C103.566 37.431 103.176 44.28 98.802 48.6539L94.8914 52.5645Z" fill="#EBCC6E"/>
<path fill-rule="evenodd" clip-rule="evenodd" d="M76.9986 24.3271C74.9458 22.2742 74.9458 18.946 76.9986 16.8932C79.0515 14.8403 82.3797 14.8403 84.4326 16.8932L96.9481 29.4087C92.1323 33.002 85.2831 32.6116 80.9092 28.2377L76.9986 24.3271Z" fill="#ED834E"/>
<path fill-rule="evenodd" clip-rule="evenodd" d="M102.439 51.0311C105.466 47.6656 106.873 43.3592 106.66 39.1191L112.67 45.1298C112.685 45.1447 112.7 45.1597 112.716 45.1746V49.4658C112.716 52.3689 110.362 54.7223 107.459 54.7223C105.101 54.7223 103.106 53.1698 102.439 51.0311Z" fill="#ED834E"/>
<path fill-rule="evenodd" clip-rule="evenodd" d="M78.5311 31.875C81.8965 34.9021 86.2029 36.3089 90.4429 36.0955L84.4324 42.1061C84.4173 42.1211 84.4024 42.1362 84.3876 42.1511H80.0964C77.1933 42.1513 74.8398 39.7977 74.8398 36.8946C74.8398 34.5367 76.3924 32.5412 78.5311 31.875Z" fill="#4F9E91"/>
<path fill-rule="evenodd" clip-rule="evenodd" d="M121.595 27.1249C118.23 24.0978 113.924 22.6909 109.684 22.9042L115.694 16.8937C115.709 16.8788 115.724 16.8637 115.739 16.8486H120.03C122.934 16.8486 125.287 19.2022 125.287 22.1053C125.287 24.4633 123.734 26.4586 121.595 27.1249Z" fill="#EBCC6E"/>
<path fill-rule="evenodd" clip-rule="evenodd" d="M97.6882 7.96775C94.6612 11.3331 93.2544 15.6396 93.4677 19.8797L87.4572 13.8691C87.4421 13.8541 87.4272 13.8392 87.4121 13.8243V9.53306C87.4121 6.62995 89.7655 4.27637 92.6687 4.27637C95.0267 4.27637 97.022 5.8291 97.6882 7.96775Z" fill="#EBE1C5"/>
<path fill-rule="evenodd" clip-rule="evenodd" d="M92.6675 0C87.4023 0 83.1341 4.26828 83.1341 9.5334V11.3876C79.9665 10.56 76.456 11.3872 73.9737 13.8694C70.2507 17.5925 70.2507 23.6287 73.9737 27.3517L75.2847 28.6628C72.4597 30.3174 70.5625 33.3846 70.5625 36.8949C70.5625 42.16 74.8308 46.4283 80.0959 46.4283H81.95C81.1223 49.5959 81.9495 53.1064 84.4318 55.5885C88.1548 59.3115 94.191 59.3115 97.9141 55.5885L101.825 51.678C105.274 48.2284 106.885 43.6363 106.658 39.1196L112.669 45.1303C116.392 48.8533 122.428 48.8533 126.151 45.1303C129.875 41.4072 129.875 35.371 126.151 31.6481L124.841 30.3372C127.665 28.6826 129.562 25.6154 129.562 22.1051C129.562 16.84 125.293 12.5717 120.029 12.5717H118.175C119.003 9.40397 118.175 5.89349 115.693 3.41122C111.97 -0.31182 105.934 -0.31182 102.211 3.41122L98.3002 7.32183C94.8505 10.7715 93.2393 15.3634 93.4667 19.8801L87.456 13.8694C87.4409 13.8545 87.426 13.8395 87.4109 13.8246V9.5334C87.4109 6.63029 89.7644 4.27686 92.6675 4.27686C95.0255 4.27686 97.0208 5.82944 97.687 7.96809C97.8845 7.74858 98.0888 7.53306 98.3 7.32183L100.9 4.72225C99.2449 1.89724 96.1778 0 92.6675 0ZM115.738 16.8486C115.723 16.8635 115.708 16.8786 115.693 16.8935L109.682 22.904C113.923 22.6907 118.229 24.0975 121.594 27.1247C123.733 26.4584 125.286 24.463 125.286 22.1051C125.286 19.202 122.933 16.8486 120.029 16.8486H115.738ZM84.3868 42.1514C84.4018 42.1363 84.4167 42.1213 84.4318 42.1063L90.4423 36.0957C86.2022 36.3091 81.896 34.9022 78.5306 31.8753C76.3919 32.5416 74.8392 34.5369 74.8392 36.8949C74.8392 39.798 77.1928 42.1514 80.0959 42.1514H84.3868ZM78.3667 31.7259C78.2035 31.5752 78.0427 31.4206 77.8843 31.2622V31.2623C78.0427 31.4208 78.2035 31.5752 78.3667 31.7259ZM107.457 59C103.947 59 100.88 57.1026 99.2251 54.2776L101.825 51.678C102.036 51.4668 102.24 51.2513 102.438 51.0318C103.104 53.1704 105.099 54.7231 107.457 54.7231C110.361 54.7231 112.714 52.3697 112.714 49.4666V45.1754C113.946 46.3912 115.427 47.2035 116.991 47.6123V49.4666C116.991 54.7317 112.723 59 107.457 59ZM112.669 6.43533C110.616 4.38262 107.288 4.38262 105.235 6.43533L101.324 10.3459C96.9504 14.72 96.56 21.569 100.153 26.3848L112.669 13.8693C114.722 11.8164 114.722 8.48819 112.669 6.43533ZM123.126 42.1062C125.18 40.0533 125.18 36.7251 123.126 34.6722L119.216 30.7616C114.842 26.3877 107.993 25.9974 103.177 29.5907L115.693 42.1062C117.746 44.159 121.075 44.159 123.126 42.1062ZM94.8898 52.5644C92.837 54.6172 89.5087 54.6172 87.4559 52.5644C85.4032 50.5115 85.4032 47.1833 87.4559 45.1304L99.9714 32.6149C103.565 37.4307 103.174 44.2799 98.8004 48.6538L94.8898 52.5644ZM76.9978 16.8935C74.9451 18.9464 74.9451 22.2746 76.9978 24.3275L80.9084 28.2381C85.2825 32.612 92.1315 33.0023 96.9473 29.409L84.4318 16.8935C82.3789 14.8408 79.0507 14.8408 76.9978 16.8935Z" fill="#3D3A2C"/>
<path d="M0 19.2783H4.67521V33.806H12.705V37.7416H0V19.2783Z" fill="white"/>
<path d="M21.1935 38.1381C19.6263 38.1381 18.2527 37.8563 17.0729 37.2928C15.8931 36.7117 14.9774 35.9192 14.3258 34.9156C13.692 33.8942 13.375 32.7232 13.375 31.4025C13.375 30.0818 13.692 28.9196 14.3258 27.9159C14.9774 26.8945 15.8931 26.1021 17.0729 25.5387C18.2527 24.9575 19.6263 24.667 21.1935 24.667C22.7608 24.667 24.1342 24.9575 25.314 25.5387C26.4939 26.1021 27.4008 26.8945 28.0346 27.9159C28.6862 28.9196 29.0119 30.0818 29.0119 31.4025C29.0119 32.7232 28.6862 33.8942 28.0346 34.9156C27.4008 35.9192 26.4939 36.7117 25.314 37.2928C24.1342 37.8563 22.7608 38.1381 21.1935 38.1381ZM21.1935 34.5193C22.1268 34.5193 22.8664 34.2464 23.4122 33.7006C23.9758 33.137 24.2574 32.371 24.2574 31.4025C24.2574 30.434 23.9758 29.6768 23.4122 29.131C22.8664 28.5674 22.1268 28.2857 21.1935 28.2857C20.2602 28.2857 19.5118 28.5674 18.9484 29.131C18.4024 29.6768 18.1295 30.434 18.1295 31.4025C18.1295 32.371 18.4024 33.137 18.9484 33.7006C19.5118 34.2464 20.2602 34.5193 21.1935 34.5193Z" fill="white"/>
<path d="M37.7445 43.8171C36.8993 43.8171 36.0452 43.7378 35.1824 43.5794C34.3372 43.4208 33.6063 43.2096 32.99 42.9454V39.7229C34.3811 40.3215 35.9659 40.6209 37.7445 40.6209C39.03 40.6209 39.9545 40.3567 40.5179 39.8285C41.0991 39.3003 41.3896 38.5255 41.3896 37.5041V36.7381C40.879 37.1783 40.245 37.5217 39.4878 37.7683C38.7482 38.0148 37.9558 38.1381 37.1105 38.1381C35.7723 38.1381 34.5925 37.8563 33.5711 37.2928C32.5498 36.7293 31.7485 35.9368 31.1675 34.9156C30.6039 33.8942 30.3223 32.7232 30.3223 31.4025C30.3223 30.0642 30.6039 28.8844 31.1675 27.8631C31.7309 26.8417 32.5233 26.058 33.5447 25.5122C34.566 24.9488 35.7371 24.667 37.0577 24.667C38.8715 24.667 40.3682 25.2217 41.548 26.3311V25.0631H46.0385V36.8702C46.0385 39.0713 45.3604 40.7795 44.0046 41.9945C42.6663 43.2096 40.5796 43.8171 37.7445 43.8171ZM38.2728 34.5458C38.9948 34.5458 39.6375 34.3609 40.2009 33.9911C40.7645 33.6213 41.1606 33.1283 41.3896 32.5119V30.2932C41.143 29.6768 40.738 29.1925 40.1746 28.8403C39.611 28.4706 38.9772 28.2857 38.2728 28.2857C37.3219 28.2857 36.5558 28.5674 35.9748 29.131C35.3936 29.6768 35.1031 30.4251 35.1031 31.3761C35.1031 32.3446 35.3936 33.1194 35.9748 33.7006C36.5558 34.264 37.3219 34.5458 38.2728 34.5458Z" fill="white"/>
<path d="M55.0353 38.1381C53.4681 38.1381 52.0947 37.8563 50.9148 37.2928C49.735 36.7117 48.8192 35.9192 48.1678 34.9156C47.5338 33.8942 47.2168 32.7232 47.2168 31.4025C47.2168 30.0818 47.5338 28.9196 48.1678 27.9159C48.8192 26.8945 49.735 26.1021 50.9148 25.5387C52.0947 24.9575 53.4681 24.667 55.0353 24.667C56.6026 24.667 57.976 24.9575 59.1558 25.5387C60.3357 26.1021 61.2426 26.8945 61.8766 27.9159C62.528 28.9196 62.8539 30.0818 62.8539 31.4025C62.8539 32.7232 62.528 33.8942 61.8766 34.9156C61.2426 35.9192 60.3357 36.7117 59.1558 37.2928C57.976 37.8563 56.6026 38.1381 55.0353 38.1381ZM55.0353 34.5193C55.9686 34.5193 56.7082 34.2464 57.2542 33.7006C57.8176 33.137 58.0994 32.371 58.0994 31.4025C58.0994 30.434 57.8176 29.6768 57.2542 29.131C56.7082 28.5674 55.9686 28.2857 55.0353 28.2857C54.1021 28.2857 53.3536 28.5674 52.7902 29.131C52.2442 29.6768 51.9713 30.434 51.9713 31.4025C51.9713 32.371 52.2442 33.137 52.7902 33.7006C53.3536 34.2464 54.1021 34.5193 55.0353 34.5193Z" fill="white"/>
<path d="M137.418 19.2783H142.094V37.7416H137.418V19.2783Z" fill="white"/>
<path d="M144.461 25.0631H148.952V26.3311C150.131 25.2217 151.628 24.667 153.441 24.667C154.762 24.667 155.934 24.9488 156.954 25.5122C157.977 26.058 158.768 26.8417 159.331 27.8631C159.895 28.8668 160.178 30.0379 160.178 31.3761C160.178 32.6968 159.895 33.8766 159.331 34.9156C158.768 35.9368 157.977 36.7293 156.954 37.2928C155.951 37.8563 154.78 38.1381 153.441 38.1381C152.597 38.1381 151.786 38.006 151.012 37.7418C150.255 37.4953 149.62 37.1519 149.11 36.7116V43.5264H144.461V25.0631ZM152.227 34.5193C153.178 34.5193 153.944 34.2377 154.524 33.6741C155.105 33.1107 155.397 32.3446 155.397 31.3761C155.397 30.4075 155.105 29.6505 154.524 29.1045C153.944 28.5411 153.178 28.2593 152.227 28.2593C151.523 28.2593 150.888 28.4442 150.325 28.814C149.761 29.1662 149.357 29.6505 149.11 30.2667V32.5119C149.357 33.1283 149.761 33.6213 150.325 33.9911C150.888 34.3433 151.523 34.5193 152.227 34.5193Z" fill="white"/>
<path d="M167.107 38.1381C166.086 38.1381 165.021 38.0324 163.911 37.8211C162.802 37.6274 161.92 37.3456 161.27 36.9758V33.5685C161.991 33.9911 162.854 34.3433 163.858 34.6251C164.879 34.8891 165.812 35.0212 166.658 35.0212C167.274 35.0212 167.723 34.9771 168.004 34.8891C168.287 34.8011 168.428 34.6251 168.428 34.3609C168.428 34.1495 168.331 33.9822 168.138 33.859C167.962 33.7182 167.626 33.5772 167.133 33.4364C166.658 33.2779 166.104 33.1107 165.469 32.9345C164.395 32.6175 163.551 32.2918 162.934 31.9572C162.317 31.6226 161.86 31.1999 161.56 30.6893C161.261 30.1787 161.111 29.536 161.111 28.7612C161.111 27.3876 161.648 26.3663 162.722 25.6971C163.814 25.0103 165.302 24.667 167.186 24.667C168.102 24.667 169.062 24.7639 170.065 24.9575C171.087 25.1513 171.852 25.4066 172.364 25.7236V29.0782C171.836 28.726 171.13 28.4353 170.25 28.2065C169.388 27.9775 168.577 27.8631 167.82 27.8631C167.222 27.8631 166.755 27.9247 166.42 28.0479C166.086 28.1536 165.919 28.3473 165.919 28.6291C165.919 28.8933 166.086 29.0958 166.42 29.2366C166.755 29.3774 167.354 29.5536 168.216 29.7648C168.78 29.9058 169.018 29.9673 168.929 29.9497C170.056 30.2491 170.927 30.5837 171.544 30.9535C172.161 31.3233 172.592 31.7635 172.839 32.2742C173.103 32.7672 173.235 33.4012 173.235 34.176C173.235 35.391 172.707 36.3594 171.651 37.0815C170.611 37.7859 169.096 38.1381 167.107 38.1381Z" fill="white"/>
<path d="M180.176 38.1374C178.434 38.1374 177.122 37.6531 176.242 36.6847C175.379 35.7161 174.947 34.4395 174.947 32.8547V25.0625H179.596V32.3263C179.596 33.7879 180.256 34.5187 181.577 34.5187C182.176 34.5187 182.722 34.3779 183.215 34.0961C183.707 33.8143 184.112 33.4005 184.429 32.8547V25.0625H189.078V37.7412H184.589V36.3677C184.043 36.9487 183.382 37.389 182.607 37.6883C181.833 37.9877 181.022 38.1374 180.176 38.1374Z" fill="white"/>
<path d="M191.459 25.0631H195.765V26.4367C196.293 25.8733 196.901 25.4418 197.587 25.1424C198.274 24.8254 199.004 24.667 199.78 24.667C200.731 24.667 201.488 24.8078 202.052 25.0896C202.633 25.3714 203.099 25.794 203.451 26.3574C203.979 25.8292 204.623 25.4153 205.38 25.1161C206.137 24.8167 206.903 24.667 207.677 24.667C209.35 24.667 210.539 25.0985 211.243 25.9613C211.948 26.8065 212.3 28.0303 212.3 29.6327V37.7418H207.862V30.2932C207.862 29.5888 207.73 29.0782 207.466 28.7612C207.202 28.4442 206.761 28.2857 206.146 28.2857C205.353 28.2857 204.71 28.5674 204.217 29.131C204.235 29.4302 204.244 29.8882 204.244 30.5044V37.7418H199.806V30.1083C199.806 29.4567 199.692 28.99 199.463 28.7084C199.234 28.4266 198.828 28.2857 198.249 28.2857C197.349 28.2857 196.576 28.7875 195.923 29.7913V37.7418H191.459V25.0631Z" fill="white"/>
</svg>
