<svg width="17" height="16" viewBox="0 0 17 16" fill="none" xmlns="http://www.w3.org/2000/svg">
<path d="M11.1406 5.5C12.3341 5.5 13.4787 5.97411 14.3226 6.81802C15.1665 7.66193 15.6406 8.80653 15.6406 10V15.25H12.6406V10C12.6406 9.60218 12.4826 9.22064 12.2013 8.93934C11.92 8.65804 11.5384 8.5 11.1406 8.5C10.7428 8.5 10.3613 8.65804 10.08 8.93934C9.79866 9.22064 9.64062 9.60218 9.64062 10V15.25H6.64062V10C6.64062 8.80653 7.11473 7.66193 7.95864 6.81802C8.80256 5.97411 9.94715 5.5 11.1406 5.5V5.5Z" stroke="white" stroke-linecap="round" stroke-linejoin="round"/>
<path d="M3.64062 6.25H0.640625V15.25H3.64062V6.25Z" stroke="white" stroke-linecap="round" stroke-linejoin="round"/>
<path d="M2.14062 4C2.96905 4 3.64062 3.32843 3.64062 2.5C3.64062 1.67157 2.96905 1 2.14062 1C1.3122 1 0.640625 1.67157 0.640625 2.5C0.640625 3.32843 1.3122 4 2.14062 4Z" stroke="white" stroke-linecap="round" stroke-linejoin="round"/>
</svg>
