<svg width="207" height="59" viewBox="0 0 207 59" fill="none" xmlns="http://www.w3.org/2000/svg">
<path d="M29.5 0C25.6261 0 21.7899 0.763123 18.2108 2.24554C14.6317 3.72813 11.3797 5.90101 8.6403 8.6403C5.90101 11.3797 3.72813 14.6317 2.24554 18.2108C0.763123 21.7899 0 25.6261 0 29.5C0 33.3739 0.763123 37.2101 2.24554 40.7892C3.72813 44.3683 5.90101 47.6203 8.6403 50.3597C11.3797 53.099 14.6317 55.2719 18.2108 56.7545C21.7899 58.2369 25.6261 59 29.5 59V44.25C27.5629 44.25 25.6449 43.8685 23.8554 43.1271C22.0658 42.3859 20.4398 41.2995 19.0702 39.9298C17.7005 38.5602 16.6141 36.9342 15.8729 35.1446C15.1315 33.3551 14.75 31.4371 14.75 29.5C14.75 27.5629 15.1315 25.6449 15.8729 23.8554C16.6141 22.0658 17.7005 20.4398 19.0702 19.0702C20.4398 17.7005 22.0658 16.6141 23.8554 15.8729C25.6449 15.1315 27.5629 14.75 29.5 14.75V0Z" fill="#0F52FF"/>
<path d="M29.4993 39.3336C34.9301 39.3336 39.3327 34.9311 39.3327 29.5003C39.3327 24.0695 34.9301 19.667 29.4993 19.667C24.0685 19.667 19.666 24.0695 19.666 29.5003C19.666 34.9311 24.0685 39.3336 29.4993 39.3336Z" fill="#0F52FF"/>
<path d="M0 29.5C0 33.3739 0.763123 37.2101 2.24554 40.7892C3.72813 44.3683 5.90101 47.6203 8.6403 50.3597C11.3797 53.099 14.6317 55.2719 18.2108 56.7545C21.7899 58.2369 25.6261 59 29.5 59C33.3739 59 37.2101 58.2369 40.7892 56.7545C44.3683 55.2719 47.6203 53.099 50.3597 50.3597C53.099 47.6203 55.2719 44.3683 56.7545 40.7892C58.2369 37.2101 59 33.3739 59 29.5H44.25C44.25 31.4371 43.8685 33.3551 43.1271 35.1446C42.3859 36.9342 41.2995 38.5602 39.9298 39.9298C38.5602 41.2995 36.9342 42.3859 35.1446 43.1271C33.3551 43.8685 31.4371 44.25 29.5 44.25C27.5629 44.25 25.6449 43.8685 23.8554 43.1271C22.0658 42.3859 20.4398 41.2995 19.0702 39.9298C17.7005 38.5602 16.6141 36.9342 15.8729 35.1446C15.1315 33.3551 14.75 31.4371 14.75 29.5H0Z" fill="#5BD0F4"/>
<path d="M39.3327 29.5004C39.3327 26.8925 38.2967 24.3914 36.4527 22.5472C34.6085 20.703 32.1074 19.667 29.4995 19.667C26.8915 19.667 24.3904 20.703 22.5462 22.5472C20.7021 24.3914 19.666 26.8925 19.666 29.5004H29.4995H39.3327Z" fill="#5BD0F4"/>
<path d="M74.4061 18.416H70.7422V38.771H74.4061V18.416Z" fill="#0F52FF"/>
<path d="M76.7988 31.56C76.7988 36.2707 80.0556 39.1786 84.3593 39.1786C88.6629 39.1786 91.9197 36.2707 91.9197 31.56C91.9197 26.8493 88.6629 23.9414 84.3593 23.9414C80.0556 23.9414 76.7988 26.8493 76.7988 31.56ZM80.4627 31.56C80.4627 28.7685 82.0911 27.14 84.3593 27.14C86.6274 27.14 88.2558 28.7685 88.2558 31.56C88.2558 34.3515 86.6274 35.9799 84.3593 35.9799C82.0911 35.9799 80.4627 34.3515 80.4627 31.56Z" fill="#0F52FF"/>
<path d="M105.013 24.3485V26.2967H104.722C103.85 25.0464 102.454 23.9414 99.9531 23.9414C96.5218 23.9414 93.4395 26.8493 93.4395 31.3274C93.4395 35.8055 96.5218 38.7133 99.9531 38.7133C102.454 38.7133 103.85 37.5792 104.664 36.4452H104.955V37.841C104.955 40.6325 103.326 41.912 100.942 41.912C98.5573 41.912 97.336 40.6325 96.8416 38.9749L93.5558 40.3999C94.3118 42.5807 96.5218 44.9943 101 44.9943C105.594 44.9943 108.618 42.5807 108.618 37.9281V24.3485H105.013ZM101.058 35.5728C98.7899 35.5728 97.1034 33.9444 97.1034 31.3274C97.1034 28.7103 98.7899 27.0819 101.058 27.0819C103.326 27.0819 105.013 28.7103 105.013 31.3274C105.013 33.9444 103.326 35.5728 101.058 35.5728Z" fill="#0F52FF"/>
<path d="M110.99 31.56C110.99 36.2707 114.247 39.1786 118.551 39.1786C122.854 39.1786 126.111 36.2707 126.111 31.56C126.111 26.8493 122.854 23.9414 118.551 23.9414C114.247 23.9414 110.99 26.8493 110.99 31.56ZM114.654 31.56C114.654 28.7685 116.283 27.14 118.551 27.14C120.819 27.14 122.447 28.7685 122.447 31.56C122.447 34.3515 120.819 35.9799 118.551 35.9799C116.283 35.9799 114.654 34.3515 114.654 31.56Z" fill="#0F52FF"/>
<path d="M128.986 20.1609C128.986 21.644 130.121 22.6617 131.576 22.6617C133.029 22.6617 134.163 21.644 134.163 20.1609C134.163 18.678 133.029 17.6602 131.576 17.6602C130.121 17.6602 128.986 18.678 128.986 20.1609ZM133.406 24.3482H129.743V38.7712H133.406V24.3482Z" fill="#5BD0F4"/>
<path d="M136.67 44.5872H140.335V36.9104H140.625C141.439 38.0736 142.835 39.1786 145.336 39.1786C148.767 39.1786 151.85 36.2707 151.85 31.56C151.85 26.8493 148.767 23.9414 145.336 23.9414C142.835 23.9414 141.439 25.0464 140.567 26.2969H140.276V24.3485H136.67V44.5872ZM144.23 36.0381C141.963 36.0381 140.276 34.4097 140.276 31.56C140.276 28.7103 141.963 27.0819 144.23 27.0819C146.499 27.0819 148.185 28.7103 148.185 31.56C148.185 34.4097 146.499 36.0381 144.23 36.0381Z" fill="#5BD0F4"/>
<path d="M153.989 28.3905C153.989 31.2402 156.373 32.287 159.397 32.8686L160.154 33.0139C161.956 33.3629 162.77 33.7991 162.77 34.7296C162.77 35.6602 161.956 36.387 160.27 36.387C158.583 36.387 157.217 35.6892 156.838 33.5955L153.465 34.4678C153.96 37.492 156.489 39.1786 160.27 39.1786C163.933 39.1786 166.318 37.463 166.318 34.4389C166.318 31.4145 163.876 30.6005 160.619 29.9608L159.862 29.8153C158.35 29.5245 157.536 29.1174 157.536 28.1579C157.536 27.2855 158.293 26.733 159.689 26.733C161.084 26.733 162.072 27.3145 162.421 28.8848L165.737 27.8671C165.039 25.5408 162.917 23.9414 159.689 23.9414C156.256 23.9414 153.989 25.5408 153.989 28.3905Z" fill="#5BD0F4"/>
<path d="M182.776 38.7716V24.3486H179.113V31.7927C179.113 34.468 177.805 36.0382 175.565 36.0382C173.587 36.0382 172.483 34.9624 172.483 32.7814V24.3486H168.818V32.9559C168.818 36.5326 171.059 39.0042 174.432 39.0042C177.077 39.0042 178.299 37.8411 178.88 36.6198H179.17V38.7716H182.776Z" fill="#5BD0F4"/>
<path d="M186.025 24.3486V38.7716H189.69V30.1643C189.69 28.187 190.621 27.082 192.306 27.082C193.761 27.082 194.633 27.8962 194.633 29.4664V38.7716H198.297V30.1643C198.297 28.187 199.228 27.082 200.914 27.082C202.368 27.082 203.24 27.8962 203.24 29.4664V38.7716H206.905V29.292C206.905 25.8025 204.752 24.116 202.077 24.116C199.722 24.116 198.646 25.1628 197.948 26.3841H197.657C196.988 25.0175 195.796 24.116 193.702 24.116C191.609 24.116 190.474 25.0465 189.923 26.1515H189.631V24.3486H186.025Z" fill="#5BD0F4"/>
</svg>
