<svg width="20" height="15" viewBox="0 0 20 15" fill="none" xmlns="http://www.w3.org/2000/svg">
<path d="M18.2638 2.9799C18.1666 2.59162 17.9687 2.23586 17.69 1.94856C17.4113 1.66125 17.0618 1.45258 16.6766 1.34362C15.2694 1 9.64062 1 9.64062 1C9.64062 1 4.01183 1 2.60463 1.37634C2.21949 1.48531 1.86992 1.69398 1.59124 1.98128C1.31255 2.26858 1.11462 2.62434 1.01744 3.01262C0.759898 4.44073 0.633922 5.88945 0.641093 7.34058C0.631913 8.80263 0.757897 10.2624 1.01744 11.7013C1.12458 12.0775 1.32694 12.4197 1.60498 12.6949C1.88301 12.97 2.22732 13.1689 2.60463 13.2721C4.01183 13.6484 9.64062 13.6484 9.64062 13.6484C9.64062 13.6484 15.2694 13.6484 16.6766 13.2721C17.0618 13.1631 17.4113 12.9545 17.69 12.6672C17.9687 12.3799 18.1666 12.0241 18.2638 11.6358C18.5194 10.2185 18.6453 8.78078 18.6402 7.34058C18.6493 5.87853 18.5234 4.41876 18.2638 2.9799V2.9799Z" stroke="white" stroke-linecap="round" stroke-linejoin="round"/>
<path d="M7.80078 10.0147L12.5051 7.33938L7.80078 4.66406V10.0147Z" stroke="white" stroke-linecap="round" stroke-linejoin="round"/>
</svg>
