<svg width="45" height="59" viewBox="0 0 45 59" fill="none" xmlns="http://www.w3.org/2000/svg">
<path d="M22.5006 5.98274C22.2037 5.98274 21.9172 5.93747 21.6475 5.85352V9.92022H23.3538V5.85352C23.0841 5.93758 22.7975 5.98274 22.5006 5.98274Z" fill="#135693"/>
<path d="M22.5004 6.09642C24.152 6.09642 25.491 4.75749 25.491 3.10583C25.491 1.45417 24.152 0.115234 22.5004 0.115234C20.8487 0.115234 19.5098 1.45417 19.5098 3.10583C19.5098 4.75749 20.8487 6.09642 22.5004 6.09642Z" fill="#6BC1DD"/>
<g opacity="0.15">
<path opacity="0.15" d="M22.027 3.10583C22.027 1.90402 22.7363 0.868286 23.759 0.392908C23.3763 0.21511 22.9501 0.115234 22.5004 0.115234C20.8486 0.115234 19.5098 1.45423 19.5098 3.10583C19.5098 4.75742 20.8486 6.0963 22.5004 6.0963C22.9501 6.0963 23.3763 5.99643 23.759 5.81863C22.7363 5.34337 22.027 4.30764 22.027 3.10583Z" fill="#440075"/>
</g>
<path d="M41.5625 14.5876H39.799V30.8565H41.5625C42.5293 30.8565 43.3204 30.0656 43.3204 29.0988V16.3454C43.3204 15.3787 42.5293 14.5876 41.5625 14.5876Z" fill="#9EA7AF"/>
<path d="M5.20129 14.5876H3.32139C2.35459 14.5876 1.56366 15.3787 1.56366 16.3454V29.0987C1.56366 30.0655 2.35459 30.8564 3.32139 30.8564H5.20117L5.20129 14.5876Z" fill="#9EA7AF"/>
<path d="M6.4 52.141H3.98432C3.1596 52.141 2.39347 51.8904 1.75781 51.4612V57.1853C1.75781 57.8298 2.28518 58.3572 2.92971 58.3572H6.4V52.141Z" fill="#C5CCD3"/>
<path d="M41.0152 52.1405H38.5996V58.3568H42.0699C42.7144 58.3568 43.2418 57.8295 43.2418 57.1849V51.4609C42.606 51.8899 41.8399 52.1405 41.0152 52.1405Z" fill="#C5CCD3"/>
<path opacity="0.15" d="M4.21877 57.1852V52.1407H3.98432C3.1596 52.1407 2.39347 51.8901 1.75781 51.4609V57.185C1.75781 57.8296 2.28518 58.3569 2.92971 58.3569H5.39066C4.74613 58.357 4.21877 57.8297 4.21877 57.1852Z" fill="#440075"/>
<path d="M6.40003 43.1818H3.98435C1.78389 43.1818 0 44.9657 0 47.1661V48.338C0 50.5385 1.784 52.3222 3.98435 52.3222H6.39991L6.40003 43.1818Z" fill="#E6E9ED"/>
<path d="M41.0152 43.1818H38.5996V52.3224H41.0152C43.2157 52.3224 44.9995 50.5385 44.9995 48.3381V47.1662C44.9995 44.9655 43.2156 43.1818 41.0152 43.1818Z" fill="#E6E9ED"/>
<g opacity="0.15">
<path opacity="0.15" d="M2.81257 48.338V47.1661C2.81257 44.9655 4.59646 43.1818 6.79691 43.1818H3.98435C1.78389 43.1818 0 44.9657 0 47.1661V48.338C0 50.5385 1.784 52.3222 3.98435 52.3222H6.79691C4.59634 52.3222 2.81257 50.5385 2.81257 48.338Z" fill="#440075"/>
</g>
<path d="M26.39 35.3848H18.6104V38.2919H26.39V35.3848Z" fill="#9EA7AF"/>
<path opacity="0.15" d="M21.4452 35.3848H18.6104V38.2919H21.4452V35.3848Z" fill="#440075"/>
<path d="M31.6514 41.0658V39.1747C31.6514 38.6189 31.1966 38.1641 30.6408 38.1641H14.0185C13.4626 38.1641 13.0078 38.6189 13.0078 39.1747V41.0658H31.6514Z" fill="#C5CCD3"/>
<path opacity="0.15" d="M16.5127 41.0658V39.1747C16.5127 38.6189 16.9675 38.1641 17.5235 38.1641H14.0185C13.4626 38.1641 13.0078 38.6189 13.0078 39.1747V41.0658H16.5127Z" fill="#440075"/>
<path d="M36.9557 40.8672H8.04397C7.07718 40.8672 6.28613 41.6582 6.28613 42.625V58.3574H38.7135V42.625C38.7135 41.6582 37.9226 40.8672 36.9557 40.8672Z" fill="#9EA7AF"/>
<g opacity="0.15">
<path opacity="0.15" d="M11.4005 40.8672H8.04397C7.07718 40.8672 6.28613 41.6582 6.28613 42.625V58.3574H9.64267V42.625C9.64267 41.6582 10.4337 40.8672 11.4005 40.8672Z" fill="#440075"/>
</g>
<path d="M39.9118 33.7624C39.9118 34.7292 39.1207 35.5202 38.1541 35.5202H6.84464C5.87796 35.5202 5.08691 34.7292 5.08691 33.7624V11.5644C5.08691 10.5976 5.87796 9.80664 6.84464 9.80664H38.1541C39.1207 9.80664 39.9118 10.5976 39.9118 11.5644V33.7624Z" fill="#C5CCD3"/>
<g opacity="0.15">
<path opacity="0.15" d="M8.43686 33.7624V11.5644C8.43686 10.5976 9.2279 9.80664 10.1947 9.80664H6.84464C5.87796 9.80664 5.08691 10.5976 5.08691 11.5644V33.7625C5.08691 34.7293 5.87796 35.5203 6.84464 35.5203H10.1947C9.2279 35.5202 8.43686 34.7292 8.43686 33.7624Z" fill="#440075"/>
</g>
<path d="M35.7527 22.6963C35.7527 26.0496 33.0343 28.7676 29.6812 28.7676H15.3187C11.9653 28.7676 9.24707 26.0495 9.24707 22.6963C9.24707 19.343 11.9653 16.625 15.3187 16.625H29.6812C33.0343 16.625 35.7527 19.343 35.7527 22.6963Z" fill="#135693"/>
<g opacity="0.15">
<path opacity="0.15" d="M12.6562 22.6963C12.6562 19.343 15.3744 16.625 18.7278 16.625H15.3187C11.9653 16.625 9.24707 19.3432 9.24707 22.6963C9.24707 26.0496 11.9653 28.7676 15.3187 28.7676H18.7278C15.3744 28.7676 12.6562 26.0495 12.6562 22.6963Z" fill="#440075"/>
</g>
<path d="M14.7124 25.0685C16.0163 25.0685 17.0733 24.0073 17.0733 22.6983C17.0733 21.3893 16.0163 20.3281 14.7124 20.3281C13.4086 20.3281 12.3516 21.3893 12.3516 22.6983C12.3516 24.0073 13.4086 25.0685 14.7124 25.0685Z" fill="#6BC1DD"/>
<path d="M30.3335 25.0665C31.6374 25.0665 32.6944 24.0054 32.6944 22.6963C32.6944 21.3873 31.6374 20.3262 30.3335 20.3262C29.0296 20.3262 27.9727 21.3873 27.9727 22.6963C27.9727 24.0054 29.0296 25.0665 30.3335 25.0665Z" fill="#6BC1DD"/>
<path d="M32.9737 58.3568V48.1405C32.9737 47.496 32.4463 46.9686 31.8018 46.9686H13.1984C12.5539 46.9686 12.0266 47.496 12.0266 48.1405V58.3568H32.9737Z" fill="#135693"/>
<path d="M24.6093 58.3575V55.0626C24.6093 54.8692 24.4511 54.7109 24.2578 54.7109H20.7421C20.5489 54.7109 20.3906 54.8692 20.3906 55.0626V58.3575H24.6093Z" fill="#FFC502"/>
<path d="M17.5777 50.636H14.8825C14.4112 50.636 14.0293 50.2541 14.0293 49.7828C14.0293 49.3116 14.4112 48.9297 14.8825 48.9297H17.5777C18.049 48.9297 18.4309 49.3116 18.4309 49.7828C18.4309 50.254 18.049 50.636 17.5777 50.636Z" fill="#C5CCD3"/>
<path d="M16.406 52.718H14.8825C14.4112 52.718 14.0293 52.3362 14.0293 51.8649C14.0293 51.3936 14.4112 51.0117 14.8825 51.0117H16.406C16.8772 51.0117 17.2591 51.3936 17.2591 51.8649C17.2591 52.3362 16.8771 52.718 16.406 52.718Z" fill="#C5CCD3"/>
<path d="M17.5777 54.802H14.8825C14.4112 54.802 14.0293 54.42 14.0293 53.9489C14.0293 53.4776 14.4112 53.0957 14.8825 53.0957H17.5777C18.049 53.0957 18.4309 53.4776 18.4309 53.9489C18.4309 54.4201 18.049 54.802 17.5777 54.802Z" fill="#C5CCD3"/>
<path d="M16.0543 56.884H14.8825C14.4112 56.884 14.0293 56.5022 14.0293 56.0309C14.0293 55.5597 14.4112 55.1777 14.8825 55.1777H16.0543C16.5256 55.1777 16.9075 55.5597 16.9075 56.0309C16.9075 56.5022 16.5255 56.884 16.0543 56.884Z" fill="#C5CCD3"/>
<path d="M29.7297 56.0277H27.6494C27.1558 56.0277 26.7559 55.6276 26.7559 55.1339C26.7559 54.6402 27.1559 54.2402 27.6494 54.2402H29.7297C30.2233 54.2402 30.6235 54.6403 30.6235 55.1339C30.6235 55.6277 30.2233 56.0277 29.7297 56.0277Z" fill="#E6E9ED"/>
<path d="M28.6914 52.9316C29.728 52.9316 30.5683 52.0913 30.5683 51.0547C30.5683 50.0181 29.728 49.1777 28.6914 49.1777C27.6548 49.1777 26.8145 50.0181 26.8145 51.0547C26.8145 52.0913 27.6548 52.9316 28.6914 52.9316Z" fill="#5DC647"/>
<path d="M24.6615 52.037C24.6615 52.2352 24.4994 52.3971 24.3014 52.3971H20.699C20.501 52.3971 20.3389 52.2352 20.3389 52.037V50.0731C20.3389 49.875 20.501 49.7129 20.699 49.7129H24.3014C24.4994 49.7129 24.6615 49.875 24.6615 50.0731V52.037Z" fill="#6BC1DD"/>
</svg>
